<svg width="204" height="57" viewBox="0 0 204 57" fill="none" xmlns="http://www.w3.org/2000/svg">
<path fill-rule="evenodd" clip-rule="evenodd" d="M100.834 6.46709C102.797 4.50621 105.981 4.50621 107.945 6.46709C109.908 8.42811 109.908 11.6075 107.945 13.5685L95.9727 25.5241C92.5355 20.9238 92.9089 14.3812 97.0929 10.2028L100.834 6.46709Z" fill="#4F9E91"/>
<path fill-rule="evenodd" clip-rule="evenodd" d="M117.948 33.441C119.912 35.4019 119.912 38.5814 117.948 40.5423C115.986 42.5033 112.801 42.5033 110.838 40.5423L98.8657 28.5868C103.472 25.1542 110.024 25.527 114.208 29.7053L117.948 33.441Z" fill="#EBE1C5"/>
<path fill-rule="evenodd" clip-rule="evenodd" d="M90.9379 50.5328C88.9744 52.4938 85.7906 52.4938 83.827 50.5328C81.8634 48.5717 81.8634 45.3924 83.827 43.4314L95.7988 31.4759C99.236 36.0762 98.8627 42.6189 94.6787 46.7971L90.9379 50.5328Z" fill="#EBCC6E"/>
<path fill-rule="evenodd" clip-rule="evenodd" d="M73.8231 23.5589C71.8594 21.5979 71.8594 18.4185 73.8231 16.4575C75.7868 14.4965 78.9704 14.4965 80.9341 16.4575L92.906 28.4131C88.2995 31.8457 81.7477 31.4728 77.5638 27.2945L73.8231 23.5589Z" fill="#ED834E"/>
<path fill-rule="evenodd" clip-rule="evenodd" d="M98.1582 49.0686C101.054 45.8536 102.399 41.7398 102.195 37.6895L107.945 43.4312C107.959 43.4455 107.974 43.4598 107.988 43.474V47.5733C107.988 50.3465 105.737 52.5947 102.96 52.5947C100.704 52.5947 98.7955 51.1115 98.1582 49.0686Z" fill="#ED834E"/>
<path fill-rule="evenodd" clip-rule="evenodd" d="M75.2891 30.7691C78.5083 33.6607 82.6277 35.0047 86.6836 34.8008L80.9341 40.5425C80.9197 40.5568 80.9054 40.5712 80.8913 40.5855H76.7865C74.0094 40.5856 71.7582 38.3373 71.7582 35.5641C71.7582 33.3117 73.2434 31.4055 75.2891 30.7691Z" fill="#4F9E91"/>
<path fill-rule="evenodd" clip-rule="evenodd" d="M116.482 26.2309C113.263 23.3393 109.144 21.9954 105.088 22.1991L110.837 16.4575C110.852 16.4432 110.866 16.4288 110.88 16.4144H114.985C117.763 16.4144 120.014 18.6627 120.014 21.4359C120.014 23.6885 118.528 25.5945 116.482 26.2309Z" fill="#EBCC6E"/>
<path fill-rule="evenodd" clip-rule="evenodd" d="M93.6135 7.9313C90.7179 11.1461 89.3723 15.2599 89.5763 19.3104L83.8269 13.5687C83.8125 13.5544 83.7982 13.5401 83.7837 13.5259V9.42658C83.7837 6.65334 86.035 4.40505 88.812 4.40505C91.0676 4.40505 92.9762 5.88832 93.6135 7.9313Z" fill="#EBE1C5"/>
<path fill-rule="evenodd" clip-rule="evenodd" d="M88.8122 0.319702C83.7758 0.319702 79.6929 4.39704 79.6929 9.42663V11.1979C76.6629 10.4073 73.3049 11.1974 70.9305 13.5687C67.3691 17.1252 67.3691 22.8914 70.9305 26.4479L72.1846 27.7002C69.4823 29.2809 67.6674 32.2108 67.6674 35.5641C67.6674 40.5937 71.7503 44.671 76.7867 44.671H78.5603C77.7686 47.6969 78.5598 51.0503 80.9343 53.4214C84.4956 56.9779 90.2697 56.9779 93.831 53.4214L97.5716 49.6859C100.871 46.3906 102.413 42.004 102.195 37.6895L107.945 43.4312C111.506 46.9877 117.28 46.9876 120.842 43.4311C124.403 39.8746 124.403 34.1084 120.842 30.552L119.588 29.2998C122.289 27.7192 124.105 24.7892 124.105 21.4359C124.105 16.4063 120.021 12.329 114.985 12.329H113.212C114.003 9.30298 113.212 5.94955 110.838 3.57832C107.276 0.0218327 101.502 0.0218327 97.941 3.57832L94.2003 7.31399C90.9005 10.6093 89.3589 14.9958 89.5763 19.3104L83.8269 13.5687C83.8125 13.5544 83.7982 13.5401 83.7837 13.5259V9.42658C83.7837 6.65334 86.035 4.40505 88.812 4.40505C91.0676 4.40505 92.9762 5.88832 93.6135 7.9313C93.8024 7.72161 93.9982 7.51577 94.2003 7.31399L96.6868 4.8307C95.104 2.13207 92.1701 0.319702 88.8122 0.319702ZM110.88 16.4144C110.866 16.4288 110.852 16.4432 110.837 16.4575L105.088 22.1991C109.144 21.9954 113.263 23.3393 116.482 26.2309C118.528 25.5945 120.014 23.6885 120.014 21.4359C120.014 18.6627 117.763 16.4144 114.985 16.4144H110.88ZM80.8913 40.5855C80.9054 40.5712 80.9197 40.5568 80.9341 40.5425L86.6836 34.8008C82.6277 35.0047 78.5083 33.6607 75.2891 30.7691C73.2434 31.4055 71.7582 33.3117 71.7582 35.5641C71.7582 38.3373 74.0094 40.5856 76.7865 40.5855H80.8913ZM102.96 56.6803C99.6018 56.6803 96.6679 54.8678 95.0851 52.1692L97.5716 49.6859C97.7738 49.4841 97.9693 49.2782 98.1582 49.0686C98.7955 51.1115 100.704 52.5947 102.96 52.5947C105.737 52.5947 107.988 50.3465 107.988 47.5733V43.474C109.166 44.6354 110.583 45.4116 112.079 45.802V47.5734C112.079 52.603 107.996 56.6803 102.96 56.6803ZM107.945 6.46709C105.981 4.50621 102.797 4.50621 100.834 6.46709L97.0929 10.2028C92.9089 14.3812 92.5355 20.9238 95.9727 25.5241L107.945 13.5685C109.908 11.6075 109.908 8.42811 107.945 6.46709ZM117.948 40.5423C119.912 38.5814 119.912 35.4019 117.948 33.441L114.208 29.7053C110.024 25.527 103.472 25.1542 98.8657 28.5868L110.838 40.5423C112.801 42.5033 115.986 42.5033 117.948 40.5423ZM90.9379 50.5328C88.9744 52.4938 85.7906 52.4938 83.827 50.5328C81.8634 48.5717 81.8634 45.3924 83.827 43.4314L95.7988 31.4759C99.236 36.0762 98.8627 42.6189 94.6787 46.7971L90.9379 50.5328ZM73.8231 16.4575C71.8594 18.4185 71.8594 21.5979 73.8231 23.5589L77.5638 27.2945C81.7477 31.4728 88.2995 31.8457 92.906 28.4131L80.9341 16.4575C78.9704 14.4965 75.7868 14.4965 73.8231 16.4575Z" fill="#3D3A2C"/>
<path d="M0.168747 18.7356H4.64089V32.6134H12.3219V36.3729H0.168747V18.7356Z" fill="#3D3A2C"/>
<path d="M20.4418 36.7515C18.9426 36.7515 17.6287 36.4823 16.5001 35.9441C15.3716 35.3889 14.4957 34.6319 13.8724 33.6732C13.2661 32.6975 12.9629 31.5789 12.9629 30.3172C12.9629 29.0556 13.2661 27.9454 13.8724 26.9866C14.4957 26.0109 15.3716 25.254 16.5001 24.7157C17.6287 24.1606 18.9426 23.883 20.4418 23.883C21.941 23.883 23.2548 24.1606 24.3833 24.7157C25.5119 25.254 26.3794 26.0109 26.9857 26.9866C27.609 27.9454 27.9206 29.0556 27.9206 30.3172C27.9206 31.5789 27.609 32.6975 26.9857 33.6732C26.3794 34.6319 25.5119 35.3889 24.3833 35.9441C23.2548 36.4823 21.941 36.7515 20.4418 36.7515ZM20.4418 33.2946C21.3345 33.2946 22.042 33.0339 22.5641 32.5125C23.1032 31.9741 23.3726 31.2424 23.3726 30.3172C23.3726 29.3921 23.1032 28.6687 22.5641 28.1473C22.042 27.6089 21.3345 27.3399 20.4418 27.3399C19.549 27.3399 18.8331 27.6089 18.2942 28.1473C17.7719 28.6687 17.5108 29.3921 17.5108 30.3172C17.5108 31.2424 17.7719 31.9741 18.2942 32.5125C18.8331 33.0339 19.549 33.2946 20.4418 33.2946Z" fill="#3D3A2C"/>
<path d="M36.2737 42.1764C35.4652 42.1764 34.6482 42.1007 33.8229 41.9494C33.0143 41.7979 32.3152 41.5961 31.7257 41.3437V38.2654C33.0564 38.8373 34.5724 39.1233 36.2737 39.1233C37.5033 39.1233 38.3877 38.8709 38.9266 38.3663C39.4826 37.8617 39.7605 37.1216 39.7605 36.1459V35.4142C39.272 35.8347 38.6656 36.1627 37.9413 36.3982C37.2338 36.6338 36.4758 36.7515 35.6673 36.7515C34.3871 36.7515 33.2586 36.4823 32.2815 35.9441C31.3046 35.4057 30.5381 34.6487 29.9823 33.6732C29.4432 32.6975 29.1738 31.5789 29.1738 30.3172C29.1738 29.0388 29.4432 27.9118 29.9823 26.9362C30.5213 25.9605 31.2793 25.2119 32.2563 24.6904C33.2332 24.1522 34.3535 23.883 35.6167 23.883C37.3518 23.883 38.7834 24.4129 39.912 25.4727V24.2614H44.2074V35.5404C44.2074 37.643 43.5588 39.2748 42.2619 40.4354C40.9817 41.5961 38.9856 42.1764 36.2737 42.1764ZM36.779 33.3199C37.4696 33.3199 38.0844 33.1433 38.6234 32.79C39.1625 32.4368 39.5414 31.9658 39.7605 31.377V29.2575C39.5246 28.6687 39.1372 28.2061 38.5982 27.8697C38.0591 27.5165 37.4528 27.3399 36.779 27.3399C35.8695 27.3399 35.1366 27.6089 34.5808 28.1473C34.0249 28.6687 33.747 29.3836 33.747 30.292C33.747 31.2172 34.0249 31.9573 34.5808 32.5125C35.1366 33.0507 35.8695 33.3199 36.779 33.3199Z" fill="#3D3A2C"/>
<path d="M52.8144 36.7515C51.3152 36.7515 50.0014 36.4823 48.8729 35.9441C47.7443 35.3889 46.8683 34.6319 46.2451 33.6732C45.6387 32.6975 45.3354 31.5789 45.3354 30.3172C45.3354 29.0556 45.6387 27.9454 46.2451 26.9866C46.8683 26.0109 47.7443 25.254 48.8729 24.7157C50.0014 24.1606 51.3152 23.883 52.8144 23.883C54.3135 23.883 55.6273 24.1606 56.7559 24.7157C57.8845 25.254 58.752 26.0109 59.3585 26.9866C59.9816 27.9454 60.2933 29.0556 60.2933 30.3172C60.2933 31.5789 59.9816 32.6975 59.3585 33.6732C58.752 34.6319 57.8845 35.3889 56.7559 35.9441C55.6273 36.4823 54.3135 36.7515 52.8144 36.7515ZM52.8144 33.2946C53.7071 33.2946 54.4146 33.0339 54.9368 32.5125C55.4758 31.9741 55.7453 31.2424 55.7453 30.3172C55.7453 29.3921 55.4758 28.6687 54.9368 28.1473C54.4146 27.6089 53.7071 27.3399 52.8144 27.3399C51.9217 27.3399 51.2057 27.6089 50.6667 28.1473C50.1445 28.6687 49.8834 29.3921 49.8834 30.3172C49.8834 31.2424 50.1445 31.9741 50.6667 32.5125C51.2057 33.0339 51.9217 33.2946 52.8144 33.2946Z" fill="#3D3A2C"/>
<path d="M131.618 18.7356H136.091V36.3729H131.618V18.7356Z" fill="#3D3A2C"/>
<path d="M138.355 24.2614H142.651V25.4727C143.778 24.4129 145.21 23.883 146.945 23.883C148.209 23.883 149.329 24.1522 150.306 24.6904C151.283 25.2119 152.04 25.9605 152.579 26.9362C153.118 27.8949 153.389 29.0137 153.389 30.292C153.389 31.5536 153.118 32.6806 152.579 33.6732C152.04 34.6487 151.283 35.4057 150.306 35.9441C149.346 36.4823 148.226 36.7515 146.945 36.7515C146.137 36.7515 145.362 36.6253 144.622 36.3729C143.897 36.1375 143.29 35.8094 142.802 35.3889V41.8988H138.355V24.2614ZM145.783 33.2946C146.693 33.2946 147.426 33.0256 147.981 32.4872C148.537 31.949 148.816 31.2172 148.816 30.292C148.816 29.3668 148.537 28.6436 147.981 28.122C147.426 27.5838 146.693 27.3146 145.783 27.3146C145.11 27.3146 144.503 27.4912 143.964 27.8445C143.425 28.1809 143.038 28.6436 142.802 29.2323V31.377C143.038 31.9658 143.425 32.4368 143.964 32.79C144.503 33.1265 145.11 33.2946 145.783 33.2946Z" fill="#3D3A2C"/>
<path d="M160.018 36.7515C159.042 36.7515 158.023 36.6506 156.962 36.4487C155.9 36.2637 155.057 35.9945 154.434 35.6413V32.3863C155.125 32.79 155.95 33.1265 156.911 33.3956C157.887 33.6479 158.78 33.7741 159.589 33.7741C160.178 33.7741 160.608 33.7319 160.877 33.6479C161.147 33.5638 161.281 33.3956 161.281 33.1433C161.281 32.9413 161.189 32.7815 161.004 32.6638C160.836 32.5293 160.515 32.3946 160.043 32.2601C159.589 32.1088 159.059 31.949 158.452 31.7807C157.424 31.4779 156.616 31.1667 156.026 30.8471C155.436 30.5274 154.999 30.1237 154.712 29.636C154.426 29.1482 154.283 28.5342 154.283 27.7941C154.283 26.4819 154.797 25.5063 155.824 24.8671C156.868 24.211 158.292 23.883 160.094 23.883C160.97 23.883 161.888 23.9756 162.848 24.1606C163.826 24.3457 164.557 24.5896 165.047 24.8924V28.0969C164.542 27.7604 163.867 27.4828 163.025 27.2642C162.2 27.0454 161.424 26.9362 160.7 26.9362C160.128 26.9362 159.681 26.995 159.361 27.1127C159.042 27.2137 158.882 27.3987 158.882 27.6679C158.882 27.9202 159.042 28.1137 159.361 28.2482C159.681 28.3827 160.254 28.551 161.079 28.7528C161.618 28.8875 161.846 28.9463 161.761 28.9294C162.839 29.2154 163.673 29.5351 164.263 29.8883C164.853 30.2416 165.265 30.6621 165.501 31.1499C165.754 31.6209 165.88 32.2265 165.88 32.9666C165.88 34.1273 165.375 35.0524 164.365 35.7421C163.37 36.415 161.921 36.7515 160.018 36.7515Z" fill="#3D3A2C"/>
<path d="M172.519 36.7515C170.852 36.7515 169.597 36.2889 168.755 35.3637C167.93 34.4385 167.517 33.219 167.517 31.7051V24.2614H171.964V31.2003C171.964 32.5966 172.596 33.2946 173.859 33.2946C174.432 33.2946 174.954 33.1601 175.425 32.8909C175.897 32.6217 176.284 32.2265 176.587 31.7051V24.2614H181.034V36.3729H176.74V35.0609C176.218 35.616 175.585 36.0365 174.844 36.3225C174.104 36.6085 173.328 36.7515 172.519 36.7515Z" fill="#3D3A2C"/>
<path d="M183.311 24.2614H187.43V25.5736C187.935 25.0354 188.517 24.6232 189.173 24.3372C189.83 24.0344 190.529 23.883 191.27 23.883C192.18 23.883 192.905 24.0176 193.444 24.2867C194 24.5559 194.445 24.9596 194.782 25.4979C195.287 24.9933 195.903 24.5979 196.627 24.312C197.352 24.026 198.085 23.883 198.825 23.883C200.425 23.883 201.563 24.2952 202.236 25.1194C202.91 25.9269 203.246 27.0959 203.246 28.6266V36.3729H199.002V29.2575C199.002 28.5847 198.876 28.0969 198.622 27.7941C198.371 27.4912 197.949 27.3399 197.36 27.3399C196.602 27.3399 195.986 27.6089 195.515 28.1473C195.532 28.4332 195.541 28.8707 195.541 29.4593V36.3729H191.296V29.0809C191.296 28.4585 191.187 28.0127 190.967 27.7436C190.748 27.4744 190.36 27.3399 189.806 27.3399C188.945 27.3399 188.205 27.8192 187.581 28.7781V36.3729H183.311V24.2614Z" fill="#3D3A2C"/>
</svg>
